<mxfile host="Electron" agent="Mozilla/5.0 (Macintosh; Intel Mac OS X 10_15_7) AppleWebKit/537.36 (KHTML, like Gecko) draw.io/24.7.5 Chrome/126.0.6478.183 Electron/31.3.0 Safari/537.36" version="24.7.5">
  <diagram name="페이지-1" id="SEJm63pSocwVKHy8orwj">
    <mxGraphModel dx="1114" dy="821" grid="1" gridSize="10" guides="1" tooltips="1" connect="1" arrows="1" fold="1" page="1" pageScale="1" pageWidth="827" pageHeight="1169" math="0" shadow="0">
      <root>
        <mxCell id="0" />
        <mxCell id="1" parent="0" />
        <mxCell id="vK6nxzPAGk5a0sG5aSqZ-34" value="토픽 T1" style="rounded=0;whiteSpace=wrap;html=1;verticalAlign=top;fontSize=14;fontStyle=1" vertex="1" parent="1">
          <mxGeometry x="80" y="50" width="100" height="180" as="geometry" />
        </mxCell>
        <mxCell id="vK6nxzPAGk5a0sG5aSqZ-4" value="컨슈머 그룹" style="rounded=1;whiteSpace=wrap;html=1;verticalAlign=top;horizontal=1;fontStyle=1;fontSize=14;" vertex="1" parent="1">
          <mxGeometry x="280.5" y="130" width="111" height="220" as="geometry" />
        </mxCell>
        <mxCell id="vK6nxzPAGk5a0sG5aSqZ-40" style="rounded=0;orthogonalLoop=1;jettySize=auto;html=1;entryX=0;entryY=0.5;entryDx=0;entryDy=0;endArrow=block;endFill=1;exitX=1;exitY=0.667;exitDx=0;exitDy=0;exitPerimeter=0;fillColor=#d5e8d4;strokeColor=#82b366;" edge="1" parent="1" source="vK6nxzPAGk5a0sG5aSqZ-6" target="vK6nxzPAGk5a0sG5aSqZ-11">
          <mxGeometry relative="1" as="geometry" />
        </mxCell>
        <mxCell id="vK6nxzPAGk5a0sG5aSqZ-6" value="파티션 0" style="rounded=0;whiteSpace=wrap;html=1;fillColor=#d5e8d4;strokeColor=#82b366;" vertex="1" parent="1">
          <mxGeometry x="100" y="100" width="60" height="30" as="geometry" />
        </mxCell>
        <mxCell id="vK6nxzPAGk5a0sG5aSqZ-43" style="rounded=0;orthogonalLoop=1;jettySize=auto;html=1;endArrow=block;endFill=1;exitX=1;exitY=0.5;exitDx=0;exitDy=0;fillColor=#d5e8d4;strokeColor=#82b366;" edge="1" parent="1" source="vK6nxzPAGk5a0sG5aSqZ-8">
          <mxGeometry relative="1" as="geometry">
            <mxPoint x="300" y="210" as="targetPoint" />
          </mxGeometry>
        </mxCell>
        <mxCell id="vK6nxzPAGk5a0sG5aSqZ-8" value="파티션 1" style="rounded=0;whiteSpace=wrap;html=1;fillColor=#d5e8d4;strokeColor=#82b366;" vertex="1" parent="1">
          <mxGeometry x="100" y="140" width="60" height="30" as="geometry" />
        </mxCell>
        <mxCell id="vK6nxzPAGk5a0sG5aSqZ-45" style="rounded=0;orthogonalLoop=1;jettySize=auto;html=1;entryX=0;entryY=0.5;entryDx=0;entryDy=0;endArrow=block;endFill=1;exitX=1;exitY=0.5;exitDx=0;exitDy=0;fillColor=#e1d5e7;strokeColor=#9673a6;" edge="1" parent="1" source="vK6nxzPAGk5a0sG5aSqZ-10" target="vK6nxzPAGk5a0sG5aSqZ-39">
          <mxGeometry relative="1" as="geometry" />
        </mxCell>
        <mxCell id="vK6nxzPAGk5a0sG5aSqZ-10" value="파티션 2" style="rounded=0;whiteSpace=wrap;html=1;fillColor=#e1d5e7;strokeColor=#9673a6;" vertex="1" parent="1">
          <mxGeometry x="100" y="180" width="60" height="30" as="geometry" />
        </mxCell>
        <mxCell id="vK6nxzPAGk5a0sG5aSqZ-11" value="컨슈머 C1" style="rounded=0;whiteSpace=wrap;html=1;fillColor=#d5e8d4;strokeColor=#82b366;" vertex="1" parent="1">
          <mxGeometry x="301" y="180" width="70" height="50" as="geometry" />
        </mxCell>
        <mxCell id="vK6nxzPAGk5a0sG5aSqZ-35" value="토픽 T2" style="rounded=0;whiteSpace=wrap;html=1;verticalAlign=top;fontSize=14;fontStyle=1" vertex="1" parent="1">
          <mxGeometry x="80" y="260" width="100" height="180" as="geometry" />
        </mxCell>
        <mxCell id="vK6nxzPAGk5a0sG5aSqZ-42" style="rounded=0;orthogonalLoop=1;jettySize=auto;html=1;endArrow=block;endFill=1;exitX=1;exitY=0.5;exitDx=0;exitDy=0;fillColor=#d5e8d4;strokeColor=#82b366;" edge="1" parent="1" source="vK6nxzPAGk5a0sG5aSqZ-36">
          <mxGeometry relative="1" as="geometry">
            <mxPoint x="300" y="210" as="targetPoint" />
          </mxGeometry>
        </mxCell>
        <mxCell id="vK6nxzPAGk5a0sG5aSqZ-36" value="파티션 0" style="rounded=0;whiteSpace=wrap;html=1;fillColor=#d5e8d4;strokeColor=#82b366;" vertex="1" parent="1">
          <mxGeometry x="100" y="310" width="60" height="30" as="geometry" />
        </mxCell>
        <mxCell id="vK6nxzPAGk5a0sG5aSqZ-44" style="rounded=0;orthogonalLoop=1;jettySize=auto;html=1;endArrow=block;endFill=1;exitX=1;exitY=0.5;exitDx=0;exitDy=0;fillColor=#d5e8d4;strokeColor=#82b366;" edge="1" parent="1" source="vK6nxzPAGk5a0sG5aSqZ-37">
          <mxGeometry relative="1" as="geometry">
            <mxPoint x="300" y="210" as="targetPoint" />
          </mxGeometry>
        </mxCell>
        <mxCell id="vK6nxzPAGk5a0sG5aSqZ-37" value="파티션 1" style="rounded=0;whiteSpace=wrap;html=1;fillColor=#d5e8d4;strokeColor=#82b366;" vertex="1" parent="1">
          <mxGeometry x="100" y="350" width="60" height="30" as="geometry" />
        </mxCell>
        <mxCell id="vK6nxzPAGk5a0sG5aSqZ-46" style="rounded=0;orthogonalLoop=1;jettySize=auto;html=1;entryX=0;entryY=0.5;entryDx=0;entryDy=0;endArrow=block;endFill=1;exitX=1;exitY=0.5;exitDx=0;exitDy=0;fillColor=#e1d5e7;strokeColor=#9673a6;" edge="1" parent="1" source="vK6nxzPAGk5a0sG5aSqZ-38" target="vK6nxzPAGk5a0sG5aSqZ-39">
          <mxGeometry relative="1" as="geometry" />
        </mxCell>
        <mxCell id="vK6nxzPAGk5a0sG5aSqZ-38" value="파티션 2" style="rounded=0;whiteSpace=wrap;html=1;fillColor=#e1d5e7;strokeColor=#9673a6;" vertex="1" parent="1">
          <mxGeometry x="100" y="390" width="60" height="30" as="geometry" />
        </mxCell>
        <mxCell id="vK6nxzPAGk5a0sG5aSqZ-39" value="컨슈머 C2" style="rounded=0;whiteSpace=wrap;html=1;fillColor=#e1d5e7;strokeColor=#9673a6;" vertex="1" parent="1">
          <mxGeometry x="301" y="280" width="70" height="50" as="geometry" />
        </mxCell>
      </root>
    </mxGraphModel>
  </diagram>
</mxfile>
